# xmcd
#
# Track frame offsets:
#	150
#	18916
#	22231
#	42672
#	61824
#	85894
#	110009
#	113000
#	132831
#	154435
#	172232
#	191663
#	211198
#	237490
#	252261
#	267303
#
# Disc length: 4153 seconds
#
# Revision: 0
# Processed by: cddbd v1.5.2PL0 Copyright (c) Steve Scherf et al.
# Submitted via: audiograbber 1.83.01
#
DISCID=ea103710
DTITLE=The Waifs - A Brief History disc 2
DYEAR=2004
DGENRE=Blues
TTITLE0=Willw Tree
TTITLE1=When I Die
TTITLE2=Sunflower Man
TTITLE3=Flesh and Blood
TTITLE4=Highway One
TTITLE5=Bridal Train Introduction
TTITLE6=Bridal Train
TTITLE7=Since I've Been Around
TTITLE8=Here If You Want
TTITLE9=Billy Jones
TTITLE10=Company
TTITLE11=Spotlight
TTITLE12=Shelter Me
TTITLE13=Shiny Apple
TTITLE14=Circles
TTITLE15=Crazy
EXTD=
EXTT0=
EXTT1=
EXTT2=
EXTT3=
EXTT4=
EXTT5=
EXTT6=
EXTT7=
EXTT8=
EXTT9=
EXTT10=
EXTT11=
EXTT12=
EXTT13=
EXTT14=
EXTT15=
PLAYORDER=
